<svg xmlns="http://www.w3.org/2000/svg" xmlns:xlink="http://www.w3.org/1999/xlink" width="136.068mm" height="56.312mm" viewBox="0 0 535.7 221.7"><title></title>
<rect x="0" y="0" width="136.068mm" height="56.312mm" fill="#1a1a2e" stroke="none"/><path d="M 463.600,84.597 L 525.706,84.597" stroke="#f5a623" fill="none" stroke-width="2.0" stroke-linecap="round" stroke-linejoin="round" layerid="1" net="COL2"/><path d="M 501.100,9.991 L 513.029,9.991 L 525.706,22.668 L 525.706,85.660 L 464.663,85.660 L 463.600,84.597" stroke="#f5a623" fill="none" stroke-width="2.0" stroke-linecap="round" stroke-linejoin="round" layerid="1" net="COL2"/><path d="M 241.494,63.416 L 241.494,84.912 L 250.116,93.534 L 250.116,144.715 L 183.187,144.715 L 175.313,136.841" stroke="#f5a623" fill="none" stroke-width="2.0" stroke-linecap="round" stroke-linejoin="round" layerid="1" net="ROW0"/><path d="M 201.494,159.203 L 201.100,159.597" stroke="#f5a623" fill="none" stroke-width="2.0" stroke-linecap="round" stroke-linejoin="round" layerid="1" net="COL0"/><path d="M 251.494,63.416 L 251.494,79.164 L 261.927,89.597 L 261.927,140.778 L 299.645,140.778" stroke="#f5a623" fill="none" stroke-width="2.0" stroke-linecap="round" stroke-linejoin="round" layerid="1" net="ROW1"/><path d="M 261.494,63.416 L 261.494,73.416 L 265.864,77.786 L 269.801,73.849 L 407.596,73.849 L 407.596,114.597 L 397.163,125.030" stroke="#f5a623" fill="none" stroke-width="2.0" stroke-linecap="round" stroke-linejoin="round" layerid="1" net="ROW2"/><path d="M 271.494,63.416 L 364.289,63.416 L 364.289,52.786 L 361.730,50.227" stroke="#f5a623" fill="none" stroke-width="2.0" stroke-linecap="round" stroke-linejoin="round" layerid="1" net="ROW3"/><path d="M 439.092,62.038 L 513.895,62.038 L 513.895,52.786 L 511.336,50.227" stroke="#f5a623" fill="none" stroke-width="2.0" stroke-linecap="round" stroke-linejoin="round" layerid="1" net="ROW3"/><path d="M 361.730,50.227 L 361.730,51.605 L 372.163,62.038 L 439.092,62.038 L 439.092,52.786 L 436.533,50.227" stroke="#f5a623" fill="none" stroke-width="2.0" stroke-linecap="round" stroke-linejoin="round" layerid="1" net="ROW3"/><path d="M 397.163,125.030 L 397.163,126.408 L 407.596,136.841 L 446.966,136.841" stroke="#f5a623" fill="none" stroke-width="2.0" stroke-linecap="round" stroke-linejoin="round" layerid="1" net="ROW2"/><path d="M 436.533,199.833 L 439.092,199.833 L 446.966,191.959 L 446.966,136.841 L 474.525,136.841 L 474.525,127.589 L 471.966,125.030" stroke="#f5a623" fill="none" stroke-width="2.0" stroke-linecap="round" stroke-linejoin="round" layerid="1" net="ROW2"/><path d="M 511.336,199.833 L 511.336,201.211 L 513.895,203.770 L 513.895,211.644 L 448.344,211.644 L 436.533,199.833" stroke="#f5a623" fill="none" stroke-width="2.0" stroke-linecap="round" stroke-linejoin="round" layerid="1" net="ROW2"/><path d="M 97.951,125.030 L 97.951,131.526 L 92.636,136.841 L 72.951,136.841 L 72.951,189.400 L 62.518,199.833" stroke="#f5a623" fill="none" stroke-width="2.0" stroke-linecap="round" stroke-linejoin="round" layerid="1" net="ROW0"/><path d="M 97.951,125.030 L 97.951,136.841" stroke="#f5a623" fill="none" stroke-width="2.0" stroke-linecap="round" stroke-linejoin="round" layerid="1" net="ROW0"/><path d="M 97.951,125.030 L 97.951,136.841 L 175.313,136.841 L 175.313,127.589 L 172.754,125.030" stroke="#f5a623" fill="none" stroke-width="2.0" stroke-linecap="round" stroke-linejoin="round" layerid="1" net="ROW0"/><path d="M 62.518,199.833 L 62.518,201.211 L 72.951,211.644 L 139.880,211.644 L 139.880,202.392 L 137.321,199.833" stroke="#f5a623" fill="none" stroke-width="2.0" stroke-linecap="round" stroke-linejoin="round" layerid="1" net="ROW0"/><path d="M 138.601,94.597 L 120.195,94.597 L 120.195,125.030 L 138.502,125.030" stroke="#f5a623" fill="none" stroke-width="2.0" stroke-linecap="round" stroke-linejoin="round" layerid="1" net="D4_2"/><path d="M 63.601,94.597 L 45.392,94.597 L 45.392,125.030 L 63.699,125.030" stroke="#f5a623" fill="none" stroke-width="2.0" stroke-linecap="round" stroke-linejoin="round" layerid="1" net="D2_2"/><path d="M 322.360,125.030 L 322.360,140.778 L 293.423,140.778 L 293.423,193.337 L 286.927,199.833" stroke="#f5a623" fill="none" stroke-width="2.0" stroke-linecap="round" stroke-linejoin="round" layerid="1" net="ROW1"/><path d="M 286.927,199.833 L 286.927,201.211 L 297.360,211.644 L 364.289,211.644 L 364.289,202.392 L 361.730,199.833" stroke="#f5a623" fill="none" stroke-width="2.0" stroke-linecap="round" stroke-linejoin="round" layerid="1" net="ROW1"/><path d="M 212.124,199.833 L 212.124,201.211 L 222.557,211.644 L 275.116,211.644 L 286.927,199.833" stroke="#f5a623" fill="none" stroke-width="2.0" stroke-linecap="round" stroke-linejoin="round" layerid="1" net="ROW1"/><path d="M 476.100,19.991 L 458.777,19.991 L 458.777,50.227 L 477.084,50.227" stroke="#f5a623" fill="none" stroke-width="2.0" stroke-linecap="round" stroke-linejoin="round" layerid="1" net="FN3_1"/><path d="M 401.100,19.991 L 383.974,19.991 L 383.974,50.227 L 402.281,50.227" stroke="#f5a623" fill="none" stroke-width="2.0" stroke-linecap="round" stroke-linejoin="round" layerid="1" net="FN2_1"/><path d="M 326.100,19.597 L 309.171,19.597 L 309.171,46.290 L 313.108,50.227 L 327.478,50.227" stroke="#f5a623" fill="none" stroke-width="2.0" stroke-linecap="round" stroke-linejoin="round" layerid="1" net="D16_2"/><path d="M 476.100,169.597 L 458.777,169.597 L 458.777,199.833 L 477.084,199.833" stroke="#f5a623" fill="none" stroke-width="2.0" stroke-linecap="round" stroke-linejoin="round" layerid="1" net="SI_1"/><path d="M 401.100,169.597 L 383.974,169.597 L 383.974,199.833 L 402.281,199.833" stroke="#f5a623" fill="none" stroke-width="2.0" stroke-linecap="round" stroke-linejoin="round" layerid="1" net="RA_1"/><path d="M 438.600,94.597 L 423.344,94.597 L 423.344,125.030 L 437.714,125.030" stroke="#f5a623" fill="none" stroke-width="2.0" stroke-linecap="round" stroke-linejoin="round" layerid="1" net="RA#_1"/><path d="M 363.600,94.597 L 348.541,94.597 L 348.541,125.030 L 362.911,125.030" stroke="#f5a623" fill="none" stroke-width="2.0" stroke-linecap="round" stroke-linejoin="round" layerid="1" net="D12_2"/><path d="M 288.600,94.597 L 273.738,94.597 L 273.738,125.030 L 288.108,125.030" stroke="#f5a623" fill="none" stroke-width="2.0" stroke-linecap="round" stroke-linejoin="round" layerid="1" net="FA#_1"/><path d="M 326.100,169.597 L 309.171,169.597 L 309.171,199.833 L 327.478,199.833" stroke="#f5a623" fill="none" stroke-width="2.0" stroke-linecap="round" stroke-linejoin="round" layerid="1" net="SOL_1"/><path d="M 251.100,169.597 L 234.368,169.597 L 234.368,199.833 L 252.675,199.833" stroke="#f5a623" fill="none" stroke-width="2.0" stroke-linecap="round" stroke-linejoin="round" layerid="1" net="FA_1"/><path d="M 176.100,169.597 L 159.565,169.597 L 159.565,199.833 L 177.872,199.833" stroke="#f5a623" fill="none" stroke-width="2.0" stroke-linecap="round" stroke-linejoin="round" layerid="1" net="D8_2"/><path d="M 101.101,169.597 L 84.762,169.597 L 84.762,199.833 L 103.069,199.833" stroke="#f5a623" fill="none" stroke-width="2.0" stroke-linecap="round" stroke-linejoin="round" layerid="1" net="D3_2"/><path d="M 26.101,169.597 L 9.959,169.597 L 9.959,195.896 L 24.329,195.896 L 28.266,199.833" stroke="#f5a623" fill="none" stroke-width="2.0" stroke-linecap="round" stroke-linejoin="round" layerid="1" net="DO_1"/><path d="M 26.101,197.668 L 28.266,199.833" stroke="#f5a623" fill="none" stroke-width="2.0" stroke-linecap="round" stroke-linejoin="round" layerid="1" net="DO_1"/></svg>